REM DIRINDEX 1\2\4,1\2\5,1\2\6,1\3\7,1\3\8,1\3\9,1\3\10
REM DIRNAME cjc057,folder01,folder02,folder03,folder04,folder05,folder06,folder07,folder08,folder09
TITLE ""
FILE "b_183.mp3" MP3
  TRACK 01 AUDIO
    TITLE "0:"
    INDEX 01 00:00:00
  TRACK 02 AUDIO
    TITLE "7:cjc057_09649"
    INDEX 01 00:00:13
  TRACK 03 AUDIO
    TITLE "0:"
    INDEX 01 00:01:38
  TRACK 04 AUDIO
    TITLE "8:cjc057_09650"
    INDEX 01 00:01:71
  TRACK 05 AUDIO
    TITLE "0:"
    INDEX 01 00:03:29
  TRACK 06 AUDIO
    TITLE "9:cjc057_09651"
    INDEX 01 00:04:01
  TRACK 07 AUDIO
    TITLE "0:"
    INDEX 01 00:07:21
  TRACK 08 AUDIO
    TITLE "7:cjc057_09652"
    INDEX 01 00:08:30
  TRACK 09 AUDIO
    TITLE "0:"
    INDEX 01 00:09:44
  TRACK 10 AUDIO
    TITLE "8:cjc057_09653"
    INDEX 01 00:10:02
  TRACK 11 AUDIO
    TITLE "0:"
    INDEX 01 00:14:11
  TRACK 12 AUDIO
    TITLE "9:cjc057_09654"
    INDEX 01 00:14:54
  TRACK 13 AUDIO
    TITLE "0:"
    INDEX 01 00:18:35
  TRACK 14 AUDIO
    TITLE "7:cjc057_09655"
    INDEX 01 00:19:46
  TRACK 15 AUDIO
    TITLE "0:"
    INDEX 01 00:20:65
  TRACK 16 AUDIO
    TITLE "8:cjc057_09656"
    INDEX 01 00:21:23
  TRACK 17 AUDIO
    TITLE "0:"
    INDEX 01 00:25:66
  TRACK 18 AUDIO
    TITLE "9:cjc057_09657"
    INDEX 01 00:26:38
  TRACK 19 AUDIO
    TITLE "0:"
    INDEX 01 00:29:21
  TRACK 20 AUDIO
    TITLE "7:cjc057_09658"
    INDEX 01 00:30:30
  TRACK 21 AUDIO
    TITLE "0:"
    INDEX 01 00:31:35
  TRACK 22 AUDIO
    TITLE "8:cjc057_09659"
    INDEX 01 00:31:71
  TRACK 23 AUDIO
    TITLE "0:"
    INDEX 01 00:35:41
  TRACK 24 AUDIO
    TITLE "9:cjc057_09660"
    INDEX 01 00:36:09
  TRACK 25 AUDIO
    TITLE "0:"
    INDEX 01 00:39:33
  TRACK 26 AUDIO
    TITLE "7:cjc057_09661"
    INDEX 01 00:40:44
  TRACK 27 AUDIO
    TITLE "0:"
    INDEX 01 00:42:12
  TRACK 28 AUDIO
    TITLE "8:cjc057_09662"
    INDEX 01 00:42:45
  TRACK 29 AUDIO
    TITLE "0:"
    INDEX 01 00:46:56
  TRACK 30 AUDIO
    TITLE "9:cjc057_09663"
    INDEX 01 00:47:25
  TRACK 31 AUDIO
    TITLE "0:"
    INDEX 01 00:49:59
  TRACK 32 AUDIO
    TITLE "7:cjc057_09664"
    INDEX 01 00:50:68
  TRACK 33 AUDIO
    TITLE "0:"
    INDEX 01 00:52:08
  TRACK 34 AUDIO
    TITLE "8:cjc057_09665"
    INDEX 01 00:52:43
  TRACK 35 AUDIO
    TITLE "0:"
    INDEX 01 00:54:74
  TRACK 36 AUDIO
    TITLE "9:cjc057_09666"
    INDEX 01 00:55:48
  TRACK 37 AUDIO
    TITLE "0:"
    INDEX 01 00:58:32
  TRACK 38 AUDIO
    TITLE "7:cjc057_09667"
    INDEX 01 00:59:36
  TRACK 39 AUDIO
    TITLE "0:"
    INDEX 01 01:00:62
  TRACK 40 AUDIO
    TITLE "8:cjc057_09668"
    INDEX 01 01:01:19
  TRACK 41 AUDIO
    TITLE "0:"
    INDEX 01 01:02:20
  TRACK 42 AUDIO
    TITLE "9:cjc057_09669"
    INDEX 01 01:02:63
  TRACK 43 AUDIO
    TITLE "0:"
    INDEX 01 01:05:50
  TRACK 44 AUDIO
    TITLE "7:cjc057_09670"
    INDEX 01 01:06:59
  TRACK 45 AUDIO
    TITLE "0:"
    INDEX 01 01:08:05
  TRACK 46 AUDIO
    TITLE "8:cjc057_09671"
    INDEX 01 01:08:38
  TRACK 47 AUDIO
    TITLE "0:"
    INDEX 01 01:09:69
  TRACK 48 AUDIO
    TITLE "9:cjc057_09672"
    INDEX 01 01:10:39
  TRACK 49 AUDIO
    TITLE "0:"
    INDEX 01 01:13:59
  TRACK 50 AUDIO
    TITLE "7:cjc057_09673"
    INDEX 01 01:14:68
  TRACK 51 AUDIO
    TITLE "0:"
    INDEX 01 01:16:14
  TRACK 52 AUDIO
    TITLE "8:cjc057_09674"
    INDEX 01 01:16:48
  TRACK 53 AUDIO
    TITLE "0:"
    INDEX 01 01:19:21
  TRACK 54 AUDIO
    TITLE "9:cjc057_09675"
    INDEX 01 01:19:66
  TRACK 55 AUDIO
    TITLE "0:"
    INDEX 01 01:22:68
  TRACK 56 AUDIO
    TITLE "7:cjc057_09676"
    INDEX 01 01:24:02
  TRACK 57 AUDIO
    TITLE "0:"
    INDEX 01 01:25:13
  TRACK 58 AUDIO
    TITLE "8:cjc057_09677"
    INDEX 01 01:25:47
  TRACK 59 AUDIO
    TITLE "0:"
    INDEX 01 01:28:12
  TRACK 60 AUDIO
    TITLE "9:cjc057_09678"
    INDEX 01 01:28:55
  TRACK 61 AUDIO
    TITLE "0:"
    INDEX 01 01:31:20
  TRACK 62 AUDIO
    TITLE "7:cjc057_09679"
    INDEX 01 01:32:29
  TRACK 63 AUDIO
    TITLE "0:"
    INDEX 01 01:33:48
  TRACK 64 AUDIO
    TITLE "8:cjc057_09680"
    INDEX 01 01:34:06
  TRACK 65 AUDIO
    TITLE "0:"
    INDEX 01 01:35:24
  TRACK 66 AUDIO
    TITLE "9:cjc057_09681"
    INDEX 01 01:35:69
  TRACK 67 AUDIO
    TITLE "0:"
    INDEX 01 01:38:65
  TRACK 68 AUDIO
    TITLE "7:cjc057_09682"
    INDEX 01 01:39:70
  TRACK 69 AUDIO
    TITLE "0:"
    INDEX 01 01:41:38
  TRACK 70 AUDIO
    TITLE "8:cjc057_09683"
    INDEX 01 01:41:71
  TRACK 71 AUDIO
    TITLE "0:"
    INDEX 01 01:45:00
  TRACK 72 AUDIO
    TITLE "9:cjc057_09684"
    INDEX 01 01:45:40
  TRACK 73 AUDIO
    TITLE "0:"
    INDEX 01 01:48:71
  TRACK 74 AUDIO
    TITLE "7:cjc057_09685"
    INDEX 01 01:50:04
  TRACK 75 AUDIO
    TITLE "0:"
    INDEX 01 01:51:17
  TRACK 76 AUDIO
    TITLE "8:cjc057_09686"
    INDEX 01 01:51:52
  TRACK 77 AUDIO
    TITLE "0:"
    INDEX 01 01:55:24
  TRACK 78 AUDIO
    TITLE "9:cjc057_09687"
    INDEX 01 01:55:67
  TRACK 79 AUDIO
    TITLE "0:"
    INDEX 01 01:58:60
  TRACK 80 AUDIO
    TITLE "7:cjc057_09688"
    INDEX 01 01:59:67
  TRACK 81 AUDIO
    TITLE "0:"
    INDEX 01 02:01:21
  TRACK 82 AUDIO
    TITLE "8:cjc057_09689"
    INDEX 01 02:01:54
  TRACK 83 AUDIO
    TITLE "0:"
    INDEX 01 02:03:41
  TRACK 84 AUDIO
    TITLE "9:cjc057_09690"
    INDEX 01 02:04:12
  TRACK 85 AUDIO
    TITLE "0:"
    INDEX 01 02:09:42
  TRACK 86 AUDIO
    TITLE "7:cjc057_09691"
    INDEX 01 02:10:51
  TRACK 87 AUDIO
    TITLE "0:"
    INDEX 01 02:11:66
  TRACK 88 AUDIO
    TITLE "8:cjc057_09692"
    INDEX 01 02:12:25
  TRACK 89 AUDIO
    TITLE "0:"
    INDEX 01 02:15:05
  TRACK 90 AUDIO
    TITLE "9:cjc057_09693"
    INDEX 01 02:15:47
  TRACK 91 AUDIO
    TITLE "0:"
    INDEX 01 02:20:58
  TRACK 92 AUDIO
    TITLE "7:cjc057_09694"
    INDEX 01 02:21:63
  TRACK 93 AUDIO
    TITLE "0:"
    INDEX 01 02:23:05
  TRACK 94 AUDIO
    TITLE "8:cjc057_09695"
    INDEX 01 02:23:40
  TRACK 95 AUDIO
    TITLE "0:"
    INDEX 01 02:26:15
  TRACK 96 AUDIO
    TITLE "9:cjc057_09696"
    INDEX 01 02:26:60
  TRACK 97 AUDIO
    TITLE "0:"
    INDEX 01 02:31:20
  TRACK 98 AUDIO
    TITLE "7:cjc057_09697"
    INDEX 01 02:32:25
  TRACK 99 AUDIO
    TITLE "0:"
    INDEX 01 02:33:39
  TRACK 100 AUDIO
    TITLE "8:cjc057_09698"
    INDEX 01 02:33:72
  TRACK 101 AUDIO
    TITLE "0:"
    INDEX 01 02:35:57
  TRACK 102 AUDIO
    TITLE "9:cjc057_09699"
    INDEX 01 02:36:27
  TRACK 103 AUDIO
    TITLE "0:"
    INDEX 01 02:38:55
  TRACK 104 AUDIO
    TITLE "7:cjc057_09700"
    INDEX 01 02:39:63
  TRACK 105 AUDIO
    TITLE "0:"
    INDEX 01 02:41:24
  TRACK 106 AUDIO
    TITLE "8:cjc057_09701"
    INDEX 01 02:41:58
  TRACK 107 AUDIO
    TITLE "0:"
    INDEX 01 02:44:62
  TRACK 108 AUDIO
    TITLE "9:cjc057_09702"
    INDEX 01 02:45:32
  TRACK 109 AUDIO
    TITLE "0:"
    INDEX 01 02:48:73
  TRACK 110 AUDIO
    TITLE "7:cjc057_09703"
    INDEX 01 02:50:08
  TRACK 111 AUDIO
    TITLE "0:"
    INDEX 01 02:51:05
  TRACK 112 AUDIO
    TITLE "8:cjc057_09704"
    INDEX 01 02:51:40
  TRACK 113 AUDIO
    TITLE "0:"
    INDEX 01 02:54:09
  TRACK 114 AUDIO
    TITLE "9:cjc057_09705"
    INDEX 01 02:54:54
  TRACK 115 AUDIO
    TITLE "0:"
    INDEX 01 02:57:45
  TRACK 116 AUDIO
    TITLE "7:cjc057_09706"
    INDEX 01 02:58:52
  TRACK 117 AUDIO
    TITLE "0:"
    INDEX 01 02:59:62
  TRACK 118 AUDIO
    TITLE "8:cjc057_09707"
    INDEX 01 03:00:20
  TRACK 119 AUDIO
    TITLE "0:"
    INDEX 01 03:02:62
  TRACK 120 AUDIO
    TITLE "9:cjc057_09708"
    INDEX 01 03:03:34
  TRACK 121 AUDIO
    TITLE "0:"
    INDEX 01 03:06:71
  TRACK 122 AUDIO
    TITLE "7:cjc057_09709"
    INDEX 01 03:08:04
  TRACK 123 AUDIO
    TITLE "0:"
    INDEX 01 03:09:17
  TRACK 124 AUDIO
    TITLE "8:cjc057_09710"
    INDEX 01 03:09:50
  TRACK 125 AUDIO
    TITLE "0:"
    INDEX 01 03:12:09
  TRACK 126 AUDIO
    TITLE "9:cjc057_09711"
    INDEX 01 03:12:54
  TRACK 127 AUDIO
    TITLE "0:"
    INDEX 01 03:15:74
  TRACK 128 AUDIO
    TITLE "7:cjc057_09712"
    INDEX 01 03:17:10
  TRACK 129 AUDIO
    TITLE "0:"
    INDEX 01 03:18:39
  TRACK 130 AUDIO
    TITLE "8:cjc057_09713"
    INDEX 01 03:18:73
  TRACK 131 AUDIO
    TITLE "0:"
    INDEX 01 03:22:66
  TRACK 132 AUDIO
    TITLE "9:cjc057_09714"
    INDEX 01 03:23:37
  TRACK 133 AUDIO
    TITLE "0:"
    INDEX 01 03:26:62
  TRACK 134 AUDIO
    TITLE "7:cjc057_09715"
    INDEX 01 03:27:72
  TRACK 135 AUDIO
    TITLE "0:"
    INDEX 01 03:29:18
  TRACK 136 AUDIO
    TITLE "8:cjc057_09716"
    INDEX 01 03:29:49
  TRACK 137 AUDIO
    TITLE "0:"
    INDEX 01 03:32:57
  TRACK 138 AUDIO
    TITLE "9:cjc057_09717"
    INDEX 01 03:33:27
  TRACK 139 AUDIO
    TITLE "0:"
    INDEX 01 03:36:47
